<?xml version="1.0" encoding="UTF-8" standalone="no"?>
<svg
   width="904.12378"
   height="568.96899"
   viewBox="0 0 904.12378 568.96899"
   version="1.1"
   id="svg20"
   sodipodi:docname="logo-goon-video.svg"
   inkscape:version="1.4.3 (0d15f75, 2025-12-25)"
   xmlns:inkscape="http://www.inkscape.org/namespaces/inkscape"
   xmlns:sodipodi="http://sodipodi.sourceforge.net/DTD/sodipodi-0.dtd"
   xmlns="http://www.w3.org/2000/svg"
   xmlns:svg="http://www.w3.org/2000/svg">
  <defs
     id="defs20" />
  <sodipodi:namedview
     id="namedview20"
     pagecolor="#ffffff"
     bordercolor="#000000"
     borderopacity="0.24705882"
     inkscape:showpageshadow="2"
     inkscape:pageopacity="0.0"
     inkscape:pagecheckerboard="0"
     inkscape:deskcolor="#000000"
     showguides="false"
     inkscape:zoom="0.807"
     inkscape:cx="767.03841"
     inkscape:cy="390.95415"
     inkscape:window-width="1920"
     inkscape:window-height="1009"
     inkscape:window-x="1912"
     inkscape:window-y="-8"
     inkscape:window-maximized="1"
     inkscape:current-layer="svg20" />
  <path
     fill="#fefefe"
     d="m 649.21378,359.328 c -10.523,9.838 -19.824,18.335 -32.692,25.108 -26.946,14.141 -58.402,17.01 -87.461,7.977 -29.201,-9.333 -53.475,-29.925 -67.443,-57.214 -13.558,-26.771 -16.092,-57.787 -7.059,-86.403 9.479,-29.34 30.141,-53.762 57.505,-67.972 26.433,-13.453 57.088,-16.003 85.38,-7.102 61.41,19.823 94.78,84.784 74.88,146.314 -13,-9.093 -25.91,-18.324 -38.722,-27.692 0.105,-2.867 0.147,-5.736 0.127,-8.605 -0.12,-18.011 -5.714,-33.926 -17.522,-47.679 -43.187,-50.299 -121.773,-19.311 -121.05,47.716 0.034,19.622 8.022,38.392 22.139,52.02 13.305,12.78 30.716,19.183 48.989,18.618 20.883,-0.645 33.723,-7.119 47.815,-21.713 7.775,-8.874 10.768,-17.303 15.03,-28.113 13.465,8.853 25.084,19.255 37.634,27.614 -2.75,6.093 -13.26,22.575 -17.55,27.126 z"
     id="path1" />
  <path
     fill="#363536"
     d="m 629.12978,304.588 c 13.465,8.853 25.084,19.255 37.634,27.614 -2.75,6.093 -13.26,22.575 -17.55,27.126 -9.444,-8.038 -24.582,-18.445 -35.114,-26.627 7.775,-8.874 10.768,-17.303 15.03,-28.113 z"
     id="path2" />
  <path
     fill="#fefefe"
     d="m 107.33978,168.625 c 28.391,-1.575 52.638,3.69 77.99,16.07 -3.522,12.251 -9.965,29.138 -14.435,41.331 -0.788,-0.362 -1.58,-0.716 -2.374,-1.063 -37.864,-16.532 -96.504,-20.85 -116.387,25.875 -14.833,34.854 -4.611,81.608 33.877,95.882 19.967,7.404 44.354,9.199 64.577,0.722 l -0.008,-26.911 -38.579,0.02 -0.001,-42.935 43.403,0.022 40.276,0.008 0.051,95.048 c -15.38,13.738 -48.855,22.93 -69.084,24.451 C 64.15678,401.842 4.81078,365.475 0.38877996,298.932 -4.3302215,227.915 34.06078,173.638 107.33978,168.625 Z"
     id="path3" />
  <path
     fill="#fefefe"
     d="m 702.13378,161.692 c 5.25,2.528 39.38,34.672 45.32,40.135 37.43,34.948 75.1,69.637 113.02,104.065 -0.58,-44.986 -0.86,-89.975 -0.86,-134.965 14.84,-0.087 29.67,-0.054 44.5,0.099 l 0.01,208.2 -0.04,25.592 c -13.15,-9.802 -35.16,-31.601 -48.58,-43.432 -36.71,-32.374 -72.71,-66.48 -109.58,-98.688 1.55,35.154 0.32,74.816 1.16,110.78 -15.14,-10.61 -30.14,-21.414 -45,-32.41 -1.33,-58.294 0.23,-120.662 0.05,-179.376 z"
     id="path4" />
  <path
     fill="#fefefe"
     d="m 225.41778,0 c 7.507,4.444 19.215,13.419 26.677,18.762 l 49.317,35.341 122.261,87.87 c 20.482,14.69 41.344,30.146 62.06,44.34 -12.161,10.08 -20.661,20.38 -29.001,33.658 -16.713,-12.472 -35.841,-25.431 -52.966,-37.659 -44.764,-31.385 -91.159,-63.311 -135.327,-95.394 0.533,27.528 0.478,57.558 0.22,85.038 -21.373,12.579 -26.92,17.81 -43.336,36.191 z"
     id="path5" />
  <path
     fill="#fefefe"
     d="m 455.98378,347.161 c 1.26,0.484 8.227,10.739 9.771,12.737 5.996,7.758 12.312,13.861 19.702,20.259 -43.885,31.576 -89.192,62.899 -133.517,93.908 l -126.663,88.593 0.017,-90.068 -0.072,-114.377 c 14.311,16.962 23.945,25.237 43.081,36.049 l -0.011,84.825 z"
     id="path6" />
  <path
     fill="#fefefe"
     d="m 840.60378,458.591 c 19.14,-3.31 38.59,3.926 50.91,18.946 12.33,15.02 15.62,35.505 8.63,53.633 -6.98,18.128 -23.18,31.1 -42.39,33.963 -29.24,4.354 -56.53,-15.618 -61.23,-44.798 -4.69,-29.179 14.96,-56.707 44.08,-61.744 z m 10.09,86.122 c 18.27,-0.442 32.7,-15.645 32.19,-33.911 -0.51,-18.266 -15.77,-32.64 -34.03,-32.061 -18.17,0.576 -32.45,15.735 -31.94,33.905 0.51,18.169 15.61,32.507 33.78,32.067 z"
     id="path7" />
  <path
     fill="#fefefe"
     d="m 615.80978,458.921 c 23.754,-0.224 55.014,-3.858 73.394,13.829 21.43,20.604 22.52,55.116 2.17,76.842 -22.36,19.465 -46.83,15.086 -75.576,14.976 z m 21.008,85.16 c 13.936,0.085 27.296,1.275 38.466,-8.768 12.02,-13.364 12.12,-35.605 -1.05,-48.348 -9.74,-9.423 -24.67,-8.02 -37.295,-7.862 0.001,21.469 0.255,43.564 -0.121,64.978 z"
     id="path8" />
  <path
     fill="#fefefe"
     d="m 508.11378,255.805 c 8.993,-14.247 17.402,-22.914 33.002,-30.272 16.468,11.9 32.875,23.884 49.22,35.953 9.818,7.287 21.356,16.467 31.395,23.084 -25.749,18.02 -54.545,37.453 -79.564,56.433 -15.145,-9.322 -23.087,-16.686 -33.026,-31.627 2.311,-1.893 8.67,-6.956 11.388,-7.811 6.585,-3.983 18.733,-14.173 25.091,-19.303 -8.06,-5.738 -16.823,-12.321 -25.112,-17.567 -3.626,-1.862 -8.995,-6.275 -12.394,-8.89 z"
     id="path9" />
  <path
     fill="#363536"
     d="m 508.11378,255.805 c 8.993,-14.247 17.402,-22.914 33.002,-30.272 16.468,11.9 32.875,23.884 49.22,35.953 9.818,7.287 21.356,16.467 31.395,23.084 -25.749,18.02 -54.545,37.453 -79.564,56.433 -15.145,-9.322 -23.087,-16.686 -33.026,-31.627 2.311,-1.893 8.67,-6.956 11.388,-7.811 7.778,8.505 15.605,16.964 23.48,25.378 15.431,-12.421 42.329,-30.794 59.068,-42.438 -19.673,-14.052 -39.82,-29.245 -59.321,-43.674 -7.389,7.498 -16.325,16.157 -23.248,23.864 -3.626,-1.862 -8.995,-6.275 -12.394,-8.89 z"
     id="path10" />
  <path
     fill="#fefefe"
     d="m 716.61378,458.927 72.09,-0.036 0.02,20.261 -51.04,0.017 -0.03,22.195 45.47,0.116 -0.06,20.321 -44.96,-0.076 c -0.82,2.629 -0.42,18.863 -0.38,22.741 16.4,0.482 36.29,-0.266 53.16,-0.219 l -0.01,20.273 -74.17,-0.04 z"
     id="path11" />
  <path
     fill="#fefefe"
     d="m 266.25178,285.949 c 2.723,6.265 1.941,16.557 8.273,28.06 8.093,14.702 15.412,15.814 23.124,26.378 13.418,18.382 27.218,37.939 40.161,56.674 -13.648,0.753 -21.919,0.684 -35.273,-1.594 -1.146,-0.244 -2.291,-0.496 -3.434,-0.754 -29.544,-6.684 -55.178,-24.925 -71.174,-50.647 11.298,-17.834 26.056,-41.233 38.323,-58.117 z"
     id="path12" />
  <path
     fill="#fefefe"
     d="m 318.89078,168.613 c 41.96,-1.322 74.146,16.122 99.48,49.102 l -21.223,35.101 -9.878,16.207 c -6.498,-25.234 -14.388,-29.285 -31.957,-44.349 -4.251,-3.646 -15.434,-19.696 -19.482,-25.003 -6.816,-8.935 -16.435,-20.513 -22.298,-29.904 1.438,-1.028 3.526,-0.981 5.358,-1.154 z"
     id="path13" />
  <path
     fill="#fefefe"
     d="m 472.86378,458.895 25.208,0.043 c 7.772,19.206 15.771,40.06 24.148,58.885 2.144,-4.562 5.006,-13.503 6.944,-18.702 l 15.105,-40.236 c 8.137,-0.059 16.275,-0.005 24.41,0.165 -2.763,9.463 -10.494,25.765 -14.669,35.226 -10.314,23.771 -21.748,51.691 -32.982,74.693 -5.009,-9.602 -12.255,-27.565 -16.842,-38.031 -10.574,-23.956 -21.015,-47.97 -31.322,-72.043 z"
     id="path14" />
  <path
     fill="#fefefe"
     d="m 295.20778,172.138 c 0.28,-0.001 0.564,-0.049 0.841,-0.004 3.576,0.59 32.801,41.022 37.162,46.996 -19.104,-0.191 -29.829,3.352 -44.636,14.95 l -26.922,0.022 -39.75,0.037 c 0.37,-0.865 0.767,-1.719 1.192,-2.559 15.608,-30.974 39.747,-48.833 72.113,-59.442 z"
     id="path15" />
  <path
     fill="#fefefe"
     d="m 426.37178,231.334 c 1.115,1.412 1.121,1.544 1.929,3.167 14.264,28.666 14.366,59.799 3.863,89.81 l -43.948,0.155 -14.09,0.024 c 11.456,-15.878 8.685,-19.724 16.085,-32.853 11.204,-19.879 24.376,-40.539 36.161,-60.303 z"
     id="path16" />
  <path
     fill="#fefefe"
     d="m 402.48778,338.201 23.052,-0.13 c -18.084,30.271 -39.638,45.296 -72.805,56.045 l -4.086,-5.926 c -9.958,-13.844 -19.767,-27.795 -29.425,-41.851 22.639,0.766 22.282,-3.198 41.975,-7.641 7.325,-1.652 32.346,-0.445 41.289,-0.497 z"
     id="path17" />
  <path
     fill="#fefefe"
     d="m 216.10978,248.135 57.734,0.012 c -10.446,17.248 -23.806,36.221 -34.948,53.399 -6.073,9.564 -12.286,19.037 -18.637,28.418 -10.987,-27.723 -13.496,-53.071 -4.149,-81.829 z"
     id="path18" />
  <path
     fill="#fefefe"
     d="m 577.62678,458.997 c 6.878,0.105 14.073,-0.028 20.98,-0.05 -0.664,13.266 -0.06,29.365 0.045,42.834 l 0.017,62.41 c -4.744,0.697 -15.741,0.386 -21.039,0.359 z"
     id="path19" />
  <path
     fill="#fefefe"
     d="m 701.91378,357.513 c 5.76,2.395 36.6,25.91 43.92,31.102 1.49,1.051 1.38,4.347 1.47,6.261 -14.7,0.263 -30.13,0.031 -44.9,0.039 z"
     id="path20" />
</svg>
